<svg width="24" height="24" xmlns="http://www.w3.org/2000/svg" class="lucide lucide-heart" stroke-linejoin="round" stroke-linecap="round" stroke-width="2" stroke="#154580" fill="none">

 <g>
  <title>Layer 1</title>
  <path id="svg_1" d="m19,14c1.49,-1.46 3,-3.21 3,-5.5a5.5,5.5 0 0 0 -5.5,-5.5c-1.76,0 -3,0.5 -4.5,2c-1.5,-1.5 -2.74,-2 -4.5,-2a5.5,5.5 0 0 0 -5.5,5.5c0,2.3 1.5,4.05 3,5.5l7,7l7,-7z"/>
  <path fill="none" d="m11.68944,19.45341c-0.12422,0 -0.24845,0 -0.12422,-0.12422c0.12422,-0.12422 0.2579,-0.20091 0.37267,-0.24845c0.1623,-0.06723 0.16061,-0.16061 0.24845,-0.24845c0.08784,-0.08784 0.12422,-0.12422 0.24845,-0.12422c0.12422,0 0.16061,-0.03638 0.24845,-0.12422c0.08784,-0.08784 0.08614,-0.30544 0.24845,-0.37267c0.11477,-0.04754 0.30544,-0.08614 0.37267,-0.24845c0.04754,-0.11477 0.13368,-0.20091 0.24845,-0.24845c0.16231,-0.06723 0.16061,-0.28483 0.24845,-0.37267c0.08784,-0.08784 0.16061,-0.03638 0.24845,-0.12422c0.08784,-0.08784 0.12422,-0.12422 0.24845,-0.24845c0.12422,-0.12422 0.30885,-0.10233 0.37267,-0.37267c0.02854,-0.1209 0.18122,-0.21037 0.24845,-0.37267c0.04754,-0.11477 0.07669,-0.13368 0.12422,-0.24845c0.06723,-0.16231 0.26995,-0.35438 0.37267,-0.49689c0.16242,-0.22534 0.18122,-0.33459 0.24845,-0.49689c0.04754,-0.11477 0.03638,-0.28483 0.12422,-0.37267c0.08784,-0.08784 0.12422,-0.12422 0.24845,-0.24845c0.12422,-0.12422 0.13638,-0.35086 0.37267,-0.49689c0.10567,-0.06531 0.24845,-0.12422 0.37267,-0.24845c0.12422,-0.12422 0.16061,-0.16061 0.24845,-0.24845c0.08784,-0.08784 0.24845,0 0.37267,-0.12422c0.24845,-0.24845 0.56966,-0.19699 0.74534,-0.37267c0.08784,-0.08784 0.45881,-0.42966 0.62112,-0.49689c0.11477,-0.04754 0.30048,0.07219 0.49689,-0.12422c0.19641,-0.19641 0.23015,-0.26995 0.37267,-0.37267c0.22534,-0.16242 0.40905,-0.16061 0.49689,-0.24845c0.08784,-0.08784 0.05699,-0.21037 0.12422,-0.37267c0.04754,-0.11477 0.01216,-0.22664 0.24845,-0.37267c0.10567,-0.06531 0.12422,-0.12422 0.12422,-0.24845c0,-0.12422 0,-0.24845 0,-0.37267c0,-0.24845 0,-0.37267 0,-0.49689c0,-0.12422 0,-0.24845 0,-0.37267c0,-0.12422 0,-0.24845 0,-0.37267c0,-0.12422 0,-0.37267 0,-0.49689c0,-0.12422 0,-0.24845 0,-0.37267c0,-0.12422 0.24845,-0.37267 0.12422,-0.37267c-0.12422,0 0,0.37267 0,0.86956c0,0.24845 0,0.86957 0,1.24224c0,0.24845 -0.0386,0.38264 -0.12422,0.74534c-0.06382,0.27034 -0.17645,0.38333 -0.24845,0.62112c-0.12979,0.42868 -0.50635,0.57358 -0.62112,0.62112c-0.48692,0.20169 -0.64422,0.58292 -0.86956,0.74534c-0.28504,0.20544 -0.33608,0.29145 -0.62112,0.49689c-0.22534,0.16242 -0.37267,0.24845 -0.37267,0.12422c0,-0.12422 -0.0152,-0.25665 0.12422,-0.49689c0.22481,-0.38739 0.53171,-0.7047 1.11801,-1.24224c0.33014,-0.30268 0.73511,-0.66918 0.86956,-0.99379c0.09508,-0.22954 0.12422,-0.24845 0.12422,-0.37267c0,-0.12422 0.08784,-0.28483 0,-0.37267c-0.08784,-0.08784 -0.14573,-0.14252 -0.24845,0c-0.16242,0.22534 -0.48235,0.8788 -1.11801,1.86335c-0.24294,0.37628 -0.57275,0.88935 -0.74534,1.24224c-0.19678,0.40235 -0.29651,0.85933 -0.62112,0.99379c-0.11477,0.04754 -0.12422,-0.12422 -0.12422,-0.86957c0,-0.86957 -0.18819,-1.4218 0.37267,-2.98137c0.188,-0.52277 0.58301,-1.01474 0.86956,-1.49068c0.5512,-0.91548 0.72353,-0.88172 0.86957,-1.11801c0.06531,-0.10567 0.06723,-0.16231 0,0c-0.14261,0.3443 -0.36244,0.91762 -0.49689,1.24224c-0.09508,0.22954 -0.44853,1.26202 -0.62112,1.61491c-0.19678,0.40235 -0.3671,0.56511 -0.49689,0.99379c-0.036,0.11889 0.24845,-0.37267 0.62112,-0.99379c0.37267,-0.62112 0.77103,-0.97052 0.99379,-1.24224c0.28396,-0.34638 0.32224,-0.93006 0.62112,-0.74534c0.33416,0.20652 -0.33953,0.77425 -0.99379,1.49068c-0.59233,0.64863 -0.86957,0.86957 -0.74534,0.86957c0.37267,0 0,-0.62112 0,-0.99379c0,-0.37267 0.14786,-0.73062 0.37267,-1.11801c0.13942,-0.24025 0.28483,-0.33629 0.37267,-0.24845c0.17568,0.17568 0.14438,0.47674 -0.24845,0.86957c-0.19641,0.19641 -0.49689,0.37267 -0.74534,0.37267c-0.24845,0 -0.24845,-0.24845 -0.24845,-0.49689c0,-0.49689 -0.06377,-0.87789 0,-1.11801c0.25706,-0.96797 0.60282,-1.13951 0.74534,-1.24224c0.22534,-0.16242 0.24845,0 0.24845,0.37267c0,0.12422 -0.04193,0.28696 -0.24845,0.62112c-0.09236,0.14944 -0.40905,0.16061 -0.49689,0.24845c-0.08784,0.08784 -0.08562,-0.00997 0,-0.37267c0.06382,-0.27034 0.68048,-0.60024 1.73913,-1.11801c0.40235,-0.19678 0.86957,-0.24845 1.24224,-0.24845c0.12422,0 0.25235,0.29964 0,0.74534c-0.08656,0.15288 -0.38866,0.3889 -0.74534,0.49689c-0.42868,0.12979 -0.37267,0.12422 -0.37267,0c0,-0.24845 0.03638,-0.40905 0.12422,-0.49689c0.08784,-0.08784 0.12422,-0.12422 0.12422,0c0,0.12422 0.06397,0.33612 -0.24845,0.49689c-0.67188,0.34576 -1.11801,0.24845 -1.49068,0.24845c-0.12422,0 -0.2199,-0.12755 -0.24845,-0.24845c-0.06382,-0.27034 -0.23839,-0.51019 -0.12422,-0.99379c0.06382,-0.27034 0.28483,-0.58473 0.37267,-0.49689c0.08784,0.08784 -0.01855,0.30736 -0.12422,0.37267c-0.23629,0.14603 -0.95571,0.81257 -1.11801,0.74534c-0.22954,-0.09508 0,-0.37267 0,-0.74534c0,-0.37267 0.11865,-0.56511 0.24845,-0.99379c0.072,-0.23779 0.08614,-0.42967 0.24845,-0.49689c0.11477,-0.04754 0.17176,0.13368 0.12422,0.24845c-0.13446,0.32461 -0.37588,0.33287 -0.62112,0.37267c-0.38776,0.06292 -0.44486,-0.05203 -0.24845,-0.24845c0.19641,-0.19641 0.37932,-0.31559 0.62112,-0.37267c0.27034,-0.06382 0.54417,-0.36191 1.11801,-0.12422c0.16231,0.06723 0.1813,0.37932 0.12422,0.62112c-0.06382,0.27034 -0.24027,0.63904 -0.49689,0.74534c-0.36293,0.15033 -0.6575,0.33629 -0.74534,0.24845c-0.08784,-0.08784 -0.11425,-0.41943 0.37267,-0.62112c0.3443,-0.14261 0.74534,-0.12422 0.99379,-0.12422c0.49689,0 0.74534,0 0.86956,0.12422c0.12422,0.12422 0.23629,0.35086 0,0.49689c-0.21134,0.13062 -0.56406,0.74771 -1.11801,0.37267c-0.10287,-0.06964 -0.09508,-0.39158 0,-0.62112c0.06723,-0.16231 0.24845,-0.24845 0.37267,-0.24845c0.12422,0 0.29888,0.18687 0,0.74534c-0.24869,0.46467 -0.84658,0.71892 -2.23602,0.99379c-0.98248,0.19436 -1.49068,0.12422 -2.48447,0.12422c-0.86957,0 -0.99379,0 -0.99379,-0.12422c0,-0.24845 -0.05961,-0.90977 0.12422,-1.11801c0.29642,-0.33578 0.62112,-0.49689 1.11801,-0.62112c0.49689,-0.12422 0.87919,-0.24361 1.61491,-0.12422c0.38776,0.06292 0.37267,0.24845 0.37267,0.37267c0,0.12422 0.11206,0.47508 -0.12422,0.62112c-0.31701,0.19592 -0.72243,0.24751 -1.73913,0.37267c-0.36988,0.04553 -0.6575,0.08784 -0.74534,0c-0.08784,-0.08784 -0.036,-0.25378 0,-0.37267c0.12979,-0.42868 0.70155,-0.74193 1.24224,-0.86957c0.3627,-0.08562 0.86957,-0.12422 1.49068,-0.12422c0.24845,0 0.26008,0.38552 0.12422,0.49689c-0.34637,0.28396 -0.98717,0.43463 -1.86335,0.49689c-0.12391,0.00881 -0.24845,0 -0.24845,-0.24845c0,-0.24845 0,-0.49689 0.24845,-0.99379c0.12422,-0.24845 0.33459,-0.56412 0.49689,-0.49689c0.11477,0.04754 0.05555,0.26156 0,0.37267c-0.27777,0.55554 -0.70841,0.56414 -1.11801,0.74534c-0.4684,0.20721 -0.46904,0.01207 -0.37267,-0.24845c0.1777,-0.48037 0.47168,-0.7772 0.62112,-0.86957c0.33416,-0.20652 0.73026,-0.30975 1.11801,-0.37267c0.36786,-0.0597 0.49689,0 0.49689,0.12422c0,0.12422 -0.82499,0.93793 -1.36646,1.24224c-0.58318,0.32774 -1.0951,0.49596 -2.1118,0.62112c-0.12329,0.01518 -0.24845,0 -0.24845,-0.12422c0,-0.12422 -0.09235,-0.54893 0.49689,-0.74534c0.35355,-0.11785 0.73763,-0.0619 1.49068,-0.12422c0.3714,-0.03074 0.62112,0 0.62112,0.12422c0,0.24845 -0.12422,0.49689 -0.24845,0.62112c-0.24845,0.24845 -1.10293,0.68242 -1.49068,0.74534c-0.36786,0.0597 -0.52543,-0.00332 -0.49689,-0.12422c0.06382,-0.27034 0.49689,-0.49689 0.86957,-0.49689c0.49689,0 0.77371,-0.14261 1.11801,0c0.16231,0.06723 0.12422,0.24845 0.12422,0.49689c0,0.49689 0.13316,0.82125 -0.12422,1.11801c-0.182,0.20984 -0.53328,0.40906 -0.62112,0.49689c-0.08784,0.08784 -0.19686,-0.14767 -0.12422,-0.24845c0.22969,-0.31868 1.37288,-0.29308 1.86335,-0.37267c0.38776,-0.06292 0.85933,-0.20039 0.99379,0.12422c0.04754,0.11477 0.18899,0.29992 0,0.62112c-0.6486,1.1023 -1.86335,0.86957 -2.23602,0.99379c-0.37267,0.12422 -0.83096,0.11425 -0.74534,-0.24845c0.06382,-0.27034 0.28802,-0.40016 0.99379,-0.74534c0.40235,-0.19678 0.64003,-0.34352 0.86957,-0.24845c0.16231,0.06723 0.12422,0.49689 0.12422,0.86957c0,0.37267 -0.9787,1.17931 -1.36646,1.24224c-0.12262,0.0199 -0.21206,-0.16061 -0.12422,-0.24845c0.17568,-0.17568 0.62112,0 0.86957,0.12422c0.24845,0.12422 0.55854,0.36122 0.62112,0.86957c0.03036,0.24659 -0.08932,0.53543 -0.49689,0.86957c-0.34638,0.28396 -0.78173,0.46051 -0.86957,0.37267c-0.08784,-0.08784 -0.14645,-0.534 0.24845,-0.74534c0.10952,-0.05862 0.24845,-0.12422 0.37267,-0.12422c0.24845,0 0.37267,0 0.37267,0.24845c0,0.37267 -0.05203,0.67315 -0.24845,0.86957c-0.19641,0.19641 -0.49689,0.24845 -0.49689,0.12422c0,-0.37267 0,-0.62112 0.12422,-0.86957c0.12422,-0.24845 0.33459,-0.42966 0.49689,-0.49689c0.22953,-0.09508 0.43307,-0.02189 0.49689,0.24845c0.08562,0.3627 0.03359,0.64955 -0.49689,1.24224c-0.35149,0.39271 -0.55089,0.85081 -0.86957,0.62112c-0.30233,-0.2179 0,-0.62112 0,-0.86957c0,-0.37267 -0.05705,-0.8672 0.49689,-1.24224c0.10287,-0.06964 0.20352,0.28639 -0.12422,0.86957c-0.3043,0.54147 -0.5513,0.82241 -1.36646,1.49068c-0.34638,0.28396 -0.62112,0.37267 -0.74534,0.37267c-0.12422,0 -0.14612,-0.18463 0.12422,-0.24845c0.3627,-0.08562 0.62112,-0.12422 0.86957,-0.12422c0.24845,0 0.42966,-0.03808 0.49689,0.12422c0.19015,0.45907 0.08562,0.75531 0,1.11801c-0.06382,0.27034 -0.45881,0.80234 -0.62112,0.86957c-0.11477,0.04754 -0.21657,-0.30048 0.37267,-0.49689c0.11785,-0.03928 0.28483,-0.08784 0.37267,0c0.08784,0.08784 0.08857,0.32935 -0.37267,0.74534c-0.53789,0.48512 -0.83298,0.5399 -1.11801,0.74534c-0.22534,0.16242 -0.46775,0.10531 -0.37267,-0.12422c0.06723,-0.16231 0.37267,-0.24845 0.24845,-0.24845c-0.12422,0 -0.21186,0.41568 -0.49689,0.62112c-0.22534,0.16242 -0.37267,0.24845 -0.37267,0.12422c0,-0.12422 0.21186,-0.29145 0.49689,-0.49689c0.22534,-0.16242 0.49689,-0.24845 0.62112,-0.24845c0.12422,0 0.17176,0.2579 0.12422,0.37267c-0.06723,0.16231 -0.37427,0.35277 -0.49689,0.37267c-0.38776,0.06292 -0.49689,0.12422 -0.49689,0.24845c0,0.12422 -0.00946,0.20091 -0.12422,0.24845c-0.32461,0.13446 -0.50686,0.16282 -0.86957,0.24845c-0.27034,0.06382 -0.90595,0.21206 -0.99379,0.12422c-0.17568,-0.17568 0.0604,-0.35078 0.12422,-0.62112c0.02854,-0.1209 0.23699,-0.18587 0.74534,-0.24845c0.36988,-0.04553 0.6575,-0.08784 0.74534,0c0.08784,0.08784 0.04754,0.2579 0,0.37267c-0.06723,0.16231 -0.49689,0.12422 -0.74534,0.12422c-0.24845,0 -0.90595,0.08784 -0.99379,0c-0.17568,-0.17568 -0.05708,-0.37932 0,-0.62112c0.12764,-0.54068 0.50964,-0.791 0.74534,-0.86957c0.58924,-0.19641 1.11801,-0.62112 1.49068,-0.62112c0.12422,0 0.24146,0.15362 0.12422,0.37267c-0.21134,0.3949 -0.70362,0.46677 -1.73913,0.86957c-0.84284,0.32785 -1.02415,0.24659 -0.99379,0c0.06258,-0.50835 0.60065,-0.71724 0.86957,-1.36646c0.09508,-0.22954 0.43314,-0.69832 0.86957,-0.99379c0.7834,-0.53039 1.1544,-0.58473 1.24224,-0.49689c0.08784,0.08784 0,0.37267 -0.37267,0.74534c-0.24845,0.24845 -0.83546,0.28672 -1.61491,0.74534c-0.15141,0.08909 -0.24845,0.12422 -0.24845,-0.12422c0,-0.37267 0.04566,-0.50964 0.12422,-0.74534c0.19641,-0.58924 0.97367,-0.92739 1.61491,-1.11801c1.21432,-0.36098 1.86335,-0.24845 1.98758,-0.24845c0.12422,0 0.2193,0.39158 0.12422,0.62112c-0.13446,0.32461 -1.01329,0.79334 -2.6087,1.24224c-0.37815,0.1064 -0.74534,0.12422 -0.86957,0.12422c-0.12422,0 -0.12422,-0.12422 -0.12422,-0.24845c0,-0.12422 -0.01089,-0.37648 0.12422,-0.74534c0.23009,-0.62815 0.3963,-1.1669 1.36646,-1.61491c0.465,-0.21473 0.89533,-0.60327 1.61491,-0.37267c0.1673,0.05361 0.12422,0.37267 -0.12422,0.62112c-0.37267,0.37267 -1.99313,1.21259 -2.73292,1.36646c-0.50146,0.1043 -0.67053,0.2234 -0.74534,0.12422c-0.5446,-0.722 0.37267,-1.11801 0.49689,-1.36646c0.12422,-0.24845 0.6575,-0.6575 0.74534,-0.74534c0.17568,-0.17568 0.24845,-0.12422 0.24845,0c0,0.12422 -0.13869,0.22296 -0.37267,0.37267c-0.67001,0.42869 -0.83148,0.81257 -0.99379,0.74534c-0.3443,-0.14261 0.56151,-1.1689 0.99379,-1.61491c0.55359,-0.57116 1.2868,-1.35798 1.86335,-0.86957c0.09478,0.08029 -0.09559,0.42124 -0.37267,0.86957c-0.20652,0.33416 -0.60789,0.64555 -1.73913,1.24224c-0.49138,0.25918 -0.59197,0.10531 -0.49689,-0.12422c0.13446,-0.32461 0.56294,-0.80957 1.24224,-1.36646c0.34638,-0.28396 0.95685,-0.68837 1.36646,-0.86957c0.9368,-0.41441 1.1544,-0.33629 1.24224,-0.24845c0.17568,0.17568 -0.08994,0.64879 -0.49689,1.11801c-0.57553,0.66359 -1.3328,1.09854 -2.73292,1.49068c-0.60995,0.17083 -1.11801,0.12422 -1.49068,0.12422c-0.12422,0 -0.12422,-0.12422 -0.12422,-0.49689c0,-0.37267 0.23901,-0.75029 0.37267,-0.99379c0.34856,-0.63496 0.88723,-1.41105 1.98758,-1.98758c0.34796,-0.18231 1.06656,-0.54835 1.24224,-0.37267c0.08784,0.08784 0.11921,0.57731 -0.24845,0.99379c-0.29642,0.33578 -1.84796,1.16064 -2.48447,1.36646c-0.48734,0.15758 -0.80426,0.22989 -0.86957,0.12422c-0.29207,-0.47257 0.60727,-0.89368 1.24224,-1.24224c0.2435,-0.13367 1.03017,-0.46051 1.11801,-0.37267c0.17568,0.17568 -0.15189,0.46261 -0.62112,0.86957c-0.26543,0.23021 -1.10294,0.76041 -1.36646,0.49689c-0.08784,-0.08784 0.02364,-0.23373 0.24845,-0.62112c0.13942,-0.24025 0.41835,-0.56695 0.86957,-0.99379c0.32537,-0.3078 1.24224,-0.86957 1.61491,-0.86957c0.24845,0 0.25513,0.25551 0.12422,0.37267c-0.59269,0.53048 -1.40467,0.86035 -3.35404,1.49068c-0.63651,0.20582 -1.49068,0.24845 -2.1118,0.24845c-0.24845,0 -0.24845,-0.37267 0.24845,-0.99379c0.49689,-0.62112 0.96435,-1.16529 1.73913,-1.61491c1.44149,-0.83653 2.23602,-0.74534 2.73292,-0.74534c0.24845,0 0.49188,0.08041 0.12422,0.49689c-0.29642,0.33578 -0.84998,0.55401 -1.86335,0.86957c-0.97805,0.30456 -1.87091,0.32804 -2.73292,0.49689c-0.50263,0.09846 -0.60489,-0.01599 -0.49689,-0.37267c0.12979,-0.42868 0.40264,-0.72684 1.98758,-1.24224c0.71858,-0.23367 1.49068,-0.37267 1.86335,-0.37267c0.37267,0 0.46775,0.26736 0.37267,0.49689c-0.13446,0.32461 -0.487,0.51776 -0.99379,0.74534c-0.61026,0.27405 -1.09758,0.37192 -2.23602,0.49689c-0.12348,0.01355 -0.27194,-0.00224 -0.24845,-0.12422c0.12651,-0.65689 0.25699,-0.98266 0.74534,-1.36646c0.74383,-0.58459 0.99379,-0.49689 1.36646,-0.49689c0.12422,0 0.2193,0.14314 0.12422,0.37267c-0.13446,0.32461 -0.51342,0.56764 -0.99379,0.74534c-0.52104,0.19274 -1.10656,0.43431 -1.61491,0.49689c-0.36988,0.04553 -0.57116,-0.06752 0,-0.62112c0.446,-0.43228 0.977,-0.74484 2.36025,-0.86957c0.49489,-0.04462 0.86957,-0.12422 0.99379,-0.12422c0.12422,0 0.2193,0.14314 0.12422,0.37267c-0.13446,0.32461 -1.48146,0.68293 -2.1118,0.74534c-0.49448,0.04896 -1.10294,0.38774 -1.36646,0.12422c-0.08784,-0.08784 0.07047,-0.6563 0.24845,-0.86956c0.39798,-0.47686 0.94853,-0.80502 2.1118,-0.99379c0.49048,-0.07959 0.97872,-0.26352 1.24224,0c0.08784,0.08784 0.03928,0.37905 0,0.49689c-0.19641,0.58924 -1.8519,0.93121 -2.36025,0.99379c-0.49317,0.06071 -1.315,0.2999 -1.49068,0.12422c-0.08784,-0.08784 -0.14261,-0.27682 0,-0.62112c0.13446,-0.32461 0.46672,-0.74372 1.24224,-0.86957c0.36786,-0.0597 0.86956,0 0.86956,0.12422c0,0.37267 0.0823,0.65963 -0.12422,0.99379c-0.18472,0.29888 -1.50043,1.09191 -1.86335,1.24224c-0.25663,0.1063 -0.37267,0.12422 -0.24845,0.12422c0.12422,0 0.27189,0.05159 0.37267,0.12422c0.31868,0.22969 0.61655,0.42534 0.86957,1.73913c0.07047,0.36595 0,0.49689 0,0.62112c0,0.24845 0,0.37267 0,0.62112c0,0.12422 -0.04754,0.2579 0,0.37267c0.13446,0.32461 0.33608,0.41568 0.62112,0.62112c0.22534,0.16242 0.49689,0.37267 0.62112,0.62112c0.12422,0.24845 0.09568,0.37599 0.12422,0.49689c0.06382,0.27034 0.16189,0.34402 0.24845,0.49689c0.25235,0.4457 0.16061,0.53328 0.24845,0.62112c0.08784,0.08784 0.08784,0.28483 0,0.37267c-0.08784,0.08784 -0.38333,-0.05223 -0.62112,-0.12422c-0.42868,-0.12979 -0.62112,-0.24845 -0.99379,-0.62112c-0.24845,-0.24845 -0.65299,-1.56287 -1.24224,-1.36646c-0.2357,0.07857 0.21025,0.52 0.37267,0.74534c0.20544,0.28504 0.47508,0.38483 0.62112,0.62112c0.06531,0.10567 0.07639,0.20223 -0.24845,-0.24845c-0.30816,-0.42755 -0.77008,-0.76732 -1.24224,-1.61491c-0.19117,-0.34317 -0.37267,-0.62112 -0.37267,-0.86957c0,-0.12422 0,-0.24845 0,-0.12422c0,0.12422 0,0.24845 0,0.12422c0,-0.12422 -0.24845,-0.37267 -0.37267,-0.62112c-0.12422,-0.24845 -0.03187,-1.06598 -0.62112,-0.86957c-0.11785,0.03928 0,0.24845 0,0.37267c0,0.37267 0,0.49689 0,0.62112c0,0.12422 -0.24845,-0.12422 -0.49689,-0.37267c-0.12422,-0.12422 -0.13368,-0.20091 -0.24845,-0.24845c-0.16231,-0.06723 -0.19641,0.05203 0,0.24845c0.19641,0.19641 0.39122,0.55581 0.49689,0.62112c0.23629,0.14603 0.37906,0.33556 0.24845,0.12422c-0.14603,-0.23629 -0.37267,-0.37267 -0.74534,-0.74534c-0.24845,-0.24845 -0.33838,-0.40034 -0.74534,-0.86957c-0.1151,-0.13272 -0.20091,-0.2579 -0.24845,-0.37267c-0.06723,-0.16231 -0.16061,-0.16061 -0.24845,-0.24845c-0.08784,-0.08784 -0.05699,-0.33459 -0.12422,-0.49689c-0.04754,-0.11477 -0.12422,-0.24845 -0.12422,-0.37267c0,-0.12422 0.08784,-0.40905 0,-0.49689c-0.08784,-0.08784 -0.12422,-0.12422 -0.12422,-0.24845c0,-0.12422 0,-0.24845 0,-0.37267c0,-0.12422 0.05699,-0.33459 0.12422,-0.49689c0.04754,-0.11477 0.07669,-0.2579 0.12422,-0.37267c0.06723,-0.16231 0.12422,-0.24845 0.24845,-0.37267c0.12422,-0.12422 0.19699,-0.19699 0.37267,-0.37267c0.08784,-0.08784 0,-0.24845 0.12422,-0.37267c0.12422,-0.12422 0.13368,-0.20091 0.24845,-0.24845c0.16231,-0.06723 0.12422,-0.24845 0.12422,-0.37267c0,-0.12422 0.08614,-0.18122 0.24845,-0.24845c0.11477,-0.04754 0.45881,-0.05699 0.62112,-0.12422c0.11477,-0.04754 0.24845,0 0.37267,0c0.12422,0 0.22655,-0.0604 0.49689,-0.12422c0.2418,-0.05708 0.37267,-0.12422 0.49689,-0.12422c0.24845,0 0.37599,0.02854 0.49689,0c0.27034,-0.06382 0.45881,-0.18122 0.62112,-0.24845c0.45907,-0.19015 0.73025,-0.0613 1.11801,-0.12422c0.12262,-0.0199 0.24845,0 0.37267,0c0.12422,0 0.37267,0 0.49689,0c0.12422,0 0.28483,-0.08784 0.37267,0c0.08784,0.08784 0.03638,0.16061 0.12422,0.24845c0.08784,0.08784 0.24845,0.12422 0.24845,0.24845c0,0.12422 0.07669,0.13368 0.12422,0.24845c0.06723,0.16231 0.07668,0.2579 0.12422,0.37267c0.06723,0.16231 0.15337,0.14314 0.24845,0.37267c0.06723,0.16231 0.18122,0.21036 0.24845,0.37267c0.04754,0.11477 0.03638,0.28483 0.12422,0.37267c0.08784,0.08784 -0.12422,-0.24845 -0.24845,-0.37267c-0.12422,-0.12422 -0.44089,-0.3671 -0.86957,-0.49689c-0.23779,-0.072 -0.62776,0.05708 -0.86957,0c-0.27034,-0.06382 -0.62112,-0.24845 -0.86957,-0.24845c-0.12422,0 -0.24845,0 -0.37267,0c-0.12422,0 -0.38213,0.04754 -0.49689,0c-0.16231,-0.06723 -0.30544,-0.08614 -0.37267,-0.24845c-0.04754,-0.11477 -0.10233,-0.18463 -0.37267,-0.24845c-0.1209,-0.02854 -0.42967,-0.21036 -0.49689,-0.37267c-0.04754,-0.11477 -0.12422,-0.12422 -0.12422,-0.24845c0,-0.12422 0.04806,-0.23821 0.37267,-0.37267c0.22954,-0.09508 0.49689,0 0.74534,0c0.24845,0 0.40905,-0.08784 0.49689,0c0.08784,0.08784 -0.12422,0.24845 -0.24845,0.24845c-0.37267,0 -0.74534,0 -0.99379,0c-0.37267,0 -0.74534,0 -1.11801,0c-0.49689,0 -0.62112,0 -0.62112,0.12422c0,0.12422 0,0.24845 0,0.37267c0,0.24845 0,0.37267 0,0.49689c0,0.49689 -0.01518,0.8705 0,0.99379c0.06258,0.50835 0.24845,0.62112 0.49689,0.86957c0.24845,0.24845 0.35078,0.5573 0.62112,0.62112c0.2418,0.05708 0.37267,0 0.49689,0c0.24845,0 0.37267,-0.12422 0.37267,-0.24845c0,-0.12422 0.17176,-0.36321 0.12422,-0.24845c-0.06723,0.16231 -0.4587,0.52 -0.62112,0.74534c-0.30816,0.42755 -0.95336,0.30726 -0.24845,-0.74534c0.24923,-0.37215 0.74534,-0.37267 0.86957,-0.37267c0.12422,0 0.24845,0.12422 0.24845,0.49689c0,0.49689 0.03429,0.89723 -0.37267,1.36646c-0.1151,0.13272 -0.45311,0.36926 -0.99379,0.49689c-0.1209,0.02854 -0.49689,0 -0.62112,0c-0.24845,0 -0.36244,-0.04806 -0.49689,-0.37267c-0.04754,-0.11477 -0.04754,-0.38213 0,-0.49689c0.06723,-0.16231 0.49859,-0.16521 0.99379,-0.12422c0.75305,0.06232 0.92997,0.35078 0.99379,0.62112c0.02854,0.1209 0,0.74534 -0.12422,0.86957c-0.37267,0.37267 -0.98233,0.43431 -1.49068,0.49689c-0.12329,0.01518 -0.267,0.06531 -0.37267,0c-0.47257,-0.29207 -0.24845,-0.86957 -0.24845,-1.24224c0,-0.12422 0.10095,-0.39836 0.37267,-0.62112c0.34638,-0.28396 0.60966,-0.43431 1.11801,-0.49689c0.12329,-0.01518 -0.37267,0.24845 -0.62112,0.24845c-0.24845,0 -0.24845,-0.12422 -0.24845,-0.37267c0,-0.12422 -0.05708,-0.25509 0,-0.49689c0.06382,-0.27034 0.28483,-0.46051 0.37267,-0.37267c0.08784,0.08784 0.09508,0.26736 0,0.49689c-0.06723,0.16231 -0.28483,0.21206 -0.37267,0.12422c-0.26352,-0.26352 0,-0.74534 0,-0.99379c0,-0.37267 0.30048,-0.79737 0.49689,-0.99379c0.19641,-0.19641 0.35758,-0.18552 0.74534,-0.24845c0.12262,-0.0199 0.12422,0.12422 0.12422,0.24845c0,0.12422 -0.12422,0.24845 -0.12422,0.37267c0,0.12422 0.10233,0.06382 0.37267,0c0.3627,-0.08562 0.58304,-0.18122 0.74534,-0.24845c0.45907,-0.19015 0.5573,0.10233 0.62112,0.37267c0.05708,0.2418 0,0.49689 0,0.62112c0,0.37267 0,0.49689 0,0.62112c0,0.12422 0.01855,0.18314 0.12422,0.24845c0.23629,0.14603 0.35086,0.13638 0.49689,0.37267c0.06531,0.10567 0.24845,0.24845 0.37267,0.37267c0.24845,0.24845 0.63328,0.22664 0.86957,0.37267c0.52835,0.32654 0.90667,0.4905 1.11801,0.62112c0.23629,0.14603 0.4786,0.5184 0.62112,0.62112c0.22534,0.16242 0.43308,0.22655 0.49689,0.49689c0.02854,0.1209 0.07668,0.13368 0.12422,0.24845c0.13446,0.32461 0.17206,0.41888 0.49689,0.86957c0.10272,0.14252 0.07277,0.32122 0.24845,0.49689c0.08784,0.08784 0.37932,0.05708 0.62112,0c0.27034,-0.06382 0.58453,-0.16723 0.86957,-0.37267c0.22534,-0.16242 0.80233,-0.33459 0.86956,-0.49689c0.04754,-0.11477 0.0398,0.00321 0,0.24845c-0.12585,0.77551 -0.55819,1.35137 -0.62112,1.73913c-0.11939,0.73572 -0.24845,1.11801 -0.12422,1.11801c0.12422,0 0,-0.37267 0,-0.49689c0,-0.12422 0.08784,-0.21206 0,-0.12422c-0.08784,0.08784 -0.08614,0.18122 -0.24845,0.24845c-0.11477,0.04754 -0.30544,0.03808 -0.37267,-0.12422c-0.09508,-0.22953 0,-0.37267 0,-0.49689c0,-0.12422 -0.036,-0.50222 0,-0.62112c0.12979,-0.42868 0.43531,-0.50131 0.99379,-0.86957c0.14666,-0.09671 0.37267,-0.24845 0.49689,-0.37267c0.12422,-0.12422 0.12422,-0.24845 0.12422,-0.37267c0,-0.12422 0.12422,-0.37267 0.12422,-0.49689c0,-0.12422 0,-0.24845 0,-0.37267c0,-0.12422 0,-0.37267 0,-0.49689c0,-0.37267 0,-0.62112 0,-0.74534l0,-0.12422" id="svg_5"/>
 </g>
</svg>